# File created by Blade
# Date/Time:  Tue Apr 07 20:17:56 2015
# Frame Rate: 120.000 fps
#------------------------------------------------------
:FULLY-SPECIFIED
:DEGREES
1615
root 3.549164 33.170036 -8.206589 12.312628 -3.113781 0.038098
Spine -10.969727 -4.329453 -2.728200
Head 24.278727 -0.710737 -1.859456
LeftShoulder -22.387385 40.634758 21.216092
LeftArm 51.630315 -53.949191 -55.514052
LeftForeArm 4.412460 0.000000 2.215683
LeftHand 12.670489 -0.000000 10.618055
LeftHandThumb1 -26.253704 0.000000 33.147579
RightShoulder -8.792658 2.822312 -33.477507
RightArm 7.921201 15.113270 44.379337
RightForeArm -7.163709 -0.000000 6.688800
RightHand 8.601877 0.000000 -5.351744
RightHandThumb1 -24.326973 -0.000000 -32.862282
LeftUpLeg -9.212230 -11.942303 0.839295
LeftLeg 4.918366 -0.000000 -0.000000
LeftFoot -5.861241 10.999946 -11.761132
LeftToeBase -16.244559 -0.000000 0.000000
RightUpLeg -13.396639 -2.567665 1.612968
RightLeg 7.151125 -0.000000 -0.000000
RightFoot -5.030008 -5.453038 5.739427
RightToeBase -0.156947 -0.000000 0.000000
1616
root 3.512902 33.194709 -8.173480 12.245388 -2.943806 0.240503
Spine -11.009549 -4.393916 -2.863246
Head 24.140270 -0.730461 -1.769125
LeftShoulder -22.343541 40.547865 21.320662
LeftArm 51.807792 -54.309242 -55.677560
LeftForeArm 4.736577 -0.000000 1.735765
LeftHand 12.342469 0.000000 10.618016
LeftHandThumb1 -26.253704 0.000000 33.147579
RightShoulder -8.816051 2.906671 -33.560773
RightArm 8.003046 15.037276 44.203091
RightForeArm -7.431784 -0.000000 6.463213
RightHand 8.234710 0.000000 -5.170924
RightHandThumb1 -24.326973 -0.000000 -32.862282
LeftUpLeg -9.044841 -11.408043 0.583846
LeftLeg 4.744807 -0.000000 -0.000000
LeftFoot -5.437198 10.694113 -11.767757
LeftToeBase -16.341247 -0.000000 0.000000
RightUpLeg -13.062626 -3.157597 1.576524
RightLeg 6.690121 -0.000000 -0.000000
RightFoot -4.620439 -5.088928 5.448774
RightToeBase -0.463955 -0.000000 0.000000
1617
root 3.472707 33.219636 -8.143178 12.215354 -2.740753 0.371102
Spine -11.074172 -4.501255 -2.918254
Head 23.995144 -0.745518 -1.676626
LeftShoulder -22.325152 40.461206 21.406075
LeftArm 51.925565 -54.725876 -55.830037
LeftForeArm 5.140997 -0.000000 1.355993
LeftHand 12.135356 -0.000000 10.793475
LeftHandThumb1 -26.253704 0.000000 33.147579
RightShoulder -8.841223 2.939416 -33.634845
RightArm 8.115829 14.973603 44.016451
RightForeArm -7.631684 -0.000000 6.219518
RightHand 8.396471 0.000000 -5.318315
RightHandThumb1 -24.326973 -0.000000 -32.862282
LeftUpLeg -8.929723 -10.986392 0.399316
LeftLeg 4.610372 -0.000000 -0.000000
LeftFoot -5.141708 10.555025 -11.671572
LeftToeBase -16.347436 -0.000000 0.000000
RightUpLeg -12.689371 -3.619032 1.588456
RightLeg 6.083451 -0.000000 -0.000000
RightFoot -4.187965 -4.824995 5.334867
RightToeBase -0.506805 -0.000000 0.000000
1618
root 3.430170 33.243256 -8.117663 12.199864 -2.566874 0.446934
Spine -11.146430 -4.559777 -2.935091
Head 23.833263 -0.771628 -1.574228
LeftShoulder -22.335116 40.413630 21.498679
LeftArm 52.151501 -55.189012 -56.142020
LeftForeArm 5.549791 -0.000000 1.094040
LeftHand 12.020370 -0.000000 10.733987
LeftHandThumb1 -26.253704 0.000000 33.147579
RightShoulder -8.854511 2.986776 -33.701367
RightArm 8.144158 14.983666 43.791173
RightForeArm -7.870673 -0.000000 6.076133
RightHand 8.378429 0.000000 -5.344342
RightHandThumb1 -24.326973 -0.000000 -32.862282
LeftUpLeg -8.803607 -10.703457 0.282322
LeftLeg 4.424267 -0.000000 -0.000000
LeftFoot -4.872927 10.651759 -11.537543
LeftToeBase -16.201405 -0.000000 0.000000
RightUpLeg -12.289418 -3.947012 1.605771
RightLeg 5.385042 -0.000000 -0.000000
RightFoot -3.740557 -4.538125 5.477266
RightToeBase -0.620374 -0.000000 0.000000
1619
root 3.398798 33.266262 -8.093466 12.231868 -2.463551 0.565049
Spine -11.274215 -4.558400 -2.982717
Head 23.690476 -0.782755 -1.500927
LeftShoulder -22.372709 40.400458 21.530399
LeftArm 52.305166 -55.616268 -56.306114
LeftForeArm 5.733657 -0.000000 0.834786
LeftHand 11.957049 -0.000000 10.674676
LeftHandThumb1 -26.253704 0.000000 33.147579
RightShoulder -8.866872 2.997168 -33.775219
RightArm 8.170243 15.062420 43.536393
RightForeArm -8.185943 -0.000000 5.991305
RightHand 8.279320 -0.000000 -5.281581
RightHandThumb1 -24.326973 -0.000000 -32.862282
LeftUpLeg -8.757676 -10.340889 0.149028
LeftLeg 4.300651 -0.000000 -0.000000
LeftFoot -4.665582 10.397319 -11.801372
LeftToeBase -15.774499 -0.000000 0.000000
RightUpLeg -12.000455 -4.283877 1.569680
RightLeg 4.804275 -0.000000 -0.000000
RightFoot -3.364625 -4.168379 5.568069
RightToeBase -0.617766 -0.000000 0.000000
1620
root 3.367534 33.287631 -8.073210 12.317635 -2.390138 0.629751
Spine -11.460901 -4.520914 -2.965727
Head 23.538928 -0.812027 -1.473896
LeftShoulder -22.328159 40.331825 21.587634
LeftArm 52.185041 -56.025962 -56.206135
LeftForeArm 5.974113 -0.000000 0.600287
LeftHand 11.914119 -0.000000 10.651259
LeftHandThumb1 -26.253704 0.000000 33.147579
RightShoulder -8.893730 3.021174 -33.887848
RightArm 8.192015 15.068653 43.275264
RightForeArm -8.417653 0.000000 5.876749
RightHand 8.534383 -0.000000 -5.442524
RightHandThumb1 -24.326973 -0.000000 -32.862282
LeftUpLeg -8.776360 -10.114244 0.077005
LeftLeg 4.199622 -0.000000 -0.000000
LeftFoot -4.472004 10.437764 -11.928421
LeftToeBase -15.419458 -0.000000 0.000000
RightUpLeg -11.795669 -4.515977 1.554590
RightLeg 4.280049 -0.000000 -0.000000
RightFoot -3.011494 -3.810878 5.791531
RightToeBase -0.605998 -0.000000 0.000000
1621
root 3.338419 33.307672 -8.058627 12.462890 -2.347134 0.640123
Spine -11.699887 -4.467599 -2.872285
Head 23.358178 -0.798228 -1.475794
LeftShoulder -22.407969 40.363813 21.530341
LeftArm 52.135456 -56.442584 -56.165945
LeftForeArm 6.269578 -0.000000 0.537793
LeftHand 11.820982 -0.000000 10.609277
LeftHandThumb1 -26.253704 0.000000 33.147579
RightShoulder -8.938989 3.030162 -33.997054
RightArm 8.270250 15.080109 42.981891
RightForeArm -8.695287 -0.000000 5.832364
RightHand 8.385768 0.000000 -5.428556
RightHandThumb1 -24.326973 -0.000000 -32.862282
LeftUpLeg -8.860747 -9.877109 0.050967
LeftLeg 4.091303 -0.000000 -0.000000
LeftFoot -4.325811 10.534823 -11.901732
LeftToeBase -15.095932 -0.000000 0.000000
RightUpLeg -11.750198 -4.748991 1.600163
RightLeg 3.941172 -0.000000 -0.000000
RightFoot -2.732624 -3.453446 5.985005
RightToeBase -0.519990 -0.000000 0.000000
1622
root 3.310465 33.324018 -8.047394 12.637735 -2.371719 0.632436
Spine -11.966421 -4.335291 -2.782833
Head 23.172071 -0.776180 -1.446063
LeftShoulder -22.444286 40.352767 21.513101
LeftArm 51.923706 -56.826205 -55.971501
LeftForeArm 6.446907 0.000000 0.539657
LeftHand 11.612626 0.000000 10.798712
LeftHandThumb1 -26.253704 0.000000 33.147579
RightShoulder -8.951228 3.245169 -34.186083
RightArm 8.105059 14.994859 42.686333
RightForeArm -8.903376 -0.000000 5.791589
RightHand 8.465398 -0.000000 -5.611021
RightHandThumb1 -24.326973 -0.000000 -32.862282
LeftUpLeg -8.961344 -9.706156 0.030712
LeftLeg 3.949428 -0.000000 -0.000000
LeftFoot -4.257483 10.845372 -11.782586
LeftToeBase -14.883411 -0.000000 0.000000
RightUpLeg -11.819555 -4.881568 1.645948
RightLeg 3.771811 -0.000000 -0.000000
RightFoot -2.576670 -3.138290 6.199267
RightToeBase -0.356280 -0.000000 0.000000
1623
root 3.290296 33.335742 -8.038425 12.817306 -2.437829 0.666940
Spine -12.226664 -4.180384 -2.737185
Head 22.956594 -0.775239 -1.433001
LeftShoulder -22.561473 40.402691 21.443952
LeftArm 51.615424 -57.121004 -55.628034
LeftForeArm 6.410986 -0.000000 0.552453
LeftHand 11.699132 -0.000000 10.941876
LeftHandThumb1 -26.253704 0.000000 33.147579
RightShoulder -8.974796 3.296725 -34.289054
RightArm 8.093287 15.036675 42.283763
RightForeArm -9.255299 0.000000 5.729254
RightHand 8.324773 -0.000000 -5.301855
RightHandThumb1 -24.326973 -0.000000 -32.862282
LeftUpLeg -9.107027 -9.432900 -0.024125
LeftLeg 3.873111 -0.000000 -0.000000
LeftFoot -4.374696 10.862057 -12.059948
LeftToeBase -14.419082 -0.000000 0.000000
RightUpLeg -11.906002 -4.901676 1.604244
RightLeg 3.619325 -0.000000 -0.000000
RightFoot -2.487798 -2.842113 6.497789
RightToeBase -0.184296 -0.000000 0.000000
1624
root 3.261967 33.343412 -8.034039 13.005436 -2.501601 0.651711
Spine -12.484406 -4.025642 -2.683456
Head 22.730422 -0.755909 -1.323521
LeftShoulder -22.629841 40.388496 21.458737
LeftArm 51.172868 -57.415989 -55.225016
LeftForeArm 6.223858 -0.000000 0.672077
LeftHand 11.791336 0.000000 11.324627
LeftHandThumb1 -26.253704 0.000000 33.147579
RightShoulder -8.986025 3.386291 -34.347431
RightArm 8.015410 14.973486 41.834771
RightForeArm -9.443109 -0.000000 5.729533
RightHand 8.160912 -0.000000 -5.349260
RightHandThumb1 -24.326973 -0.000000 -32.862282
LeftUpLeg -9.248586 -9.347880 0.021323
LeftLeg 3.752560 -0.000000 -0.000000
LeftFoot -4.688310 11.057522 -12.574955
LeftToeBase -13.442560 -0.000000 0.000000
RightUpLeg -11.969073 -4.716204 1.559890
RightLeg 3.408195 -0.000000 -0.000000
RightFoot -2.388597 -2.565735 7.005310
RightToeBase 0.008438 -0.000000 -0.000000
